PathFileType	4	(X/Y/Z)	Patient4_TMGait_0pt8_01_right_21.trc.trc
DataRate	CameraRate	NumFrames	NumMarkers	Units	OrigDataRate	OrigDataStartFrame	OrigNumFrames
88.607594936709	88.607594936709	5	33	mm	88.607594936709	124	       141
Frame#	Time	Sacral			L.Shoulder			Chest			R.Shoulder			Neck			R.ASIS			L.ASIS			R.Thigh.Superior			R.Thigh.Lateral			R.Thigh.Inferior			R.Patella			L.Thigh.Superior			L.Thigh.Lateral			L.Thigh.Inferior			L.Patella			L.Shank.Superior			L.Shank.Lateral			L.Shank.Inferior			R.Shank.Superior			R.Shank.Lateral			R.Shank.Inferior			R.Heel			R.Midfoot.Superior			R.Midfoot.Lateral			R.Toe			L.Heel			L.Midfoot.Lateral			L.Midfoot.Superior			L.Toe			L.Elbow			L.Wrist			R.Elbow			R.Wrist			
		X1	Y1	Z1	X2	Y2	Z2	X3	Y3	Z3	X4	Y4	Z4	X5	Y5	Z5	X6	Y6	Z6	X7	Y7	Z7	X8	Y8	Z8	X9	Y9	Z9	X10	Y10	Z10	X11	Y11	Z11	X12	Y12	Z12	X13	Y13	Z13	X14	Y14	Z14	X15	Y15	Z15	X16	Y16	Z16	X17	Y17	Z17	X18	Y18	Z18	X19	Y19	Z19	X20	Y20	Z20	X21	Y21	Z21	X22	Y22	Z22	X23	Y23	Z23	X24	Y24	Z24	X25	Y25	Z25	X26	Y26	Z26	X27	Y27	Z27	X28	Y28	Z28	X29	Y29	Z29	X30	Y30	Z30	X31	Y31	Z31	X32	Y32	Z32	X33	Y33	Z33	

124	24.758142857143	897.232447132883	984.110975192522	440.305463916550	1067.696904180602	1416.865575421715	266.927004122782	1161.479911027403	1351.973863307929	434.731600727751	1063.465197017747	1420.511700303713	603.311801264550	1037.112744008817	1475.830051958893	422.003612325142	1126.519940667557	920.521318146458	558.150245324394	1111.833918930098	950.679452117501	283.186154460129	1203.500736596718	755.209884554391	525.819378597635	1164.594233323444	629.178791714222	599.593496478051	1257.043917848106	598.905511468337	521.788683477737	1290.966550430290	513.308305832115	538.538842354305	1102.397359463608	719.535873476200	304.316852832456	974.299780994244	631.915919478167	250.397922166184	1032.840710759413	533.816102438262	309.531992596781	1013.693445548350	466.317828923298	318.676436050656	974.412468549163	402.983857130313	313.852381705405	859.639810439847	306.817477998422	274.524733187232	898.481889399055	187.918519663452	341.827286603933	1274.067141620705	422.118223932768	547.913987230007	1215.675335588150	307.278259147157	603.976363076601	1287.316585136376	222.275656242518	555.159477574528	1195.113654837958	40.488456300381	516.515887119445	1353.837221953558	110.604255101983	568.383345944462	1271.470227858083	40.375672448955	598.921503028889	1474.500801929431	73.713589721386	609.843372226050	757.905743611197	41.123119273692	400.685392492359	824.163776039186	35.419858633316	313.919143916524	910.652925759706	96.192500696858	332.413789917632	1034.665492313681	43.950397857206	292.803101168675	1170.379681487627	1103.246395067346	113.165661935268	1426.688049025036	1089.185440311156	137.331159708964	886.831000819553	1132.252006425129	705.673840017972	807.284206280159	887.818244412987	736.761180572653	
125	24.769428571429	898.614367916172	982.787701120574	443.099552945954	1067.961344108968	1415.617756981108	269.206624325168	1162.221703787677	1351.130508621730	436.961730658515	1064.001632005942	1419.377296482440	605.673691114822	1037.577099994728	1474.697818260684	424.312914172532	1128.308265693389	919.272396095440	560.505341854197	1113.205437708885	949.302761530665	285.491398541674	1205.609741910535	753.387604202850	527.948934576982	1164.380155327690	627.152675387714	600.021097556967	1257.152232999174	596.906674277726	522.773644494261	1289.365147006562	510.584451881814	538.249748349577	1103.425013365602	718.083808703385	306.164837218390	974.918731881540	630.798908954121	252.467572595234	1033.484045668168	532.173773342010	311.095181204125	1014.035438747914	463.866443470857	319.914135154935	972.881251618111	401.237138092941	315.097066597354	855.971657973943	307.695536293355	275.626536239455	892.058055624496	187.587254321360	342.180767918362	1272.038608909561	419.101171556993	547.423248382794	1212.763831257306	304.800746488433	603.498822747164	1282.754405190986	219.209932153747	553.858161282292	1187.141058026760	40.307240223533	515.248201752340	1347.349209601758	106.812930074077	566.349171292948	1263.603117406927	39.012168109534	597.570766986037	1467.550852846097	67.551984990039	607.523788920679	748.879486003839	42.693381055779	400.334711311301	815.237452765503	35.974839678512	313.819128604509	902.267669153573	96.185175948760	332.203904314273	1025.839746507928	43.103420062260	292.715710568660	1167.923491464438	1101.028050008633	115.078568803694	1423.894661973623	1094.810899700577	140.162753053047	888.267564475751	1130.406844525653	707.689134724022	809.082232484817	885.921210059164	739.285406391069	
126	24.780714285714	899.990942203446	981.788900049407	445.958628974604	1068.258214682559	1414.676541003651	271.567508055907	1163.049793330447	1350.582059590412	439.258538957035	1064.671407038567	1418.489113924940	608.157529680454	1038.153160823709	1473.914492459166	426.698214729597	1130.087896017296	918.422038856035	562.936222636348	1114.533488715096	948.242168114460	287.883136423205	1207.882119676056	752.066619518877	530.174668771142	1164.434369280416	625.800808649126	600.761304843455	1257.413077418322	595.422552879489	523.997552302432	1287.988480841293	508.363835426226	538.316106887152	1104.808113804157	716.949466377474	308.076729728105	976.111711958299	629.726425196662	254.670781495235	1035.072741136037	530.639894615235	312.616759754943	1015.459831098268	461.364571952406	320.957587379311	972.150942409000	399.539471918451	316.252190871640	852.904449626237	308.964028113824	276.779891966204	886.067682403884	187.576444636358	342.444655099286	1270.071684298116	416.570792486952	547.241927854540	1209.894535907594	302.973083151042	603.712948431008	1277.749714250471	216.579311958513	552.977314385927	1178.199705800494	40.481133112343	514.586166568435	1339.985244128797	103.526018591881	564.885018578267	1254.815782634365	38.026345056589	596.797205522406	1459.708865324287	61.845091044256	605.684825298143	739.986580125208	45.090855841071	399.925632226160	806.367639128097	36.926368784792	313.690266534723	894.152584942077	96.277590985337	331.841042509481	1016.985878070834	42.194697568303	292.625052898347	1164.945365569490	1098.716218488545	117.295051428109	1420.478043755651	1099.197030844249	142.961410544965	890.905409921114	1127.945798514857	709.898507138152	812.599659844355	883.248793133854	742.045947785749	
127	24.792000000000	901.330933047792	981.184015527534	448.845031011083	1068.596724130602	1414.121633523045	273.994966012236	1163.950311683571	1350.376223852680	441.601106574303	1065.485780238361	1417.919229454196	610.733997916474	1038.824538535268	1473.537386256245	429.143943002854	1131.804985296307	918.038618905570	565.446619238645	1115.812602868797	947.559565962743	290.332361922154	1210.128127459938	751.250918325732	532.513871997007	1164.652267263563	625.131563828290	601.896255506682	1257.662402574805	594.429556239735	525.496323551329	1286.696018457266	506.675594197571	538.837452876635	1106.560451823575	716.190966748168	310.085072906298	977.975182435400	628.705632651222	256.969769396629	1037.725994993631	529.256182143756	314.094356081234	1018.081727902989	458.862122399849	321.769416865891	972.351016785154	397.925882586046	317.280586421036	850.587100833669	310.685133477154	277.937162237873	880.646681920245	187.979467427921	342.600245622018	1268.082552215348	414.568939807753	547.441507858695	1207.035775964821	301.760003446434	604.589632765618	1272.431464740082	214.445469131832	552.526442533740	1168.746845488278	40.859668375883	514.428585697967	1332.054984476117	100.925257692368	564.001411496468	1245.531433650522	37.380236227325	596.525213030315	1451.303333977616	56.976167820929	604.379430692328	731.329145372927	48.530322915793	399.462069442305	797.604876357862	38.426740761351	313.533320475361	886.396543473828	96.516468076237	331.310973485381	1008.087329741639	41.244900565804	292.539525431155	1161.411776134333	1096.394989723462	119.844953926439	1416.509418210419	1102.287476295203	145.722231166941	894.717428963615	1125.011047887102	712.315909923671	817.878467828447	879.915926466443	745.006325951105	
128	24.803285714286	902.605301173397	981.018835744344	451.738874437408	1068.975484571801	1414.012171583639	276.472232294431	1164.900494448056	1350.542117263905	443.964297703302	1066.447375724308	1417.726683939449	613.366063901889	1039.562163202335	1473.598655185254	431.631926753151	1133.411351226095	918.161892856815	568.044888252125	1117.044759534340	947.284423685085	292.807049606671	1212.156971467561	750.898018162634	534.994419118828	1164.874933449314	625.080272102389	603.454947840654	1257.719491098252	593.854965146397	527.286971101792	1285.301352033870	505.479471181118	539.860515068723	1108.708241837462	715.853473945211	312.221468666464	980.618212056848	627.736110437528	259.317878995065	1041.559039186129	528.060349694288	315.525821459555	1022.002147457643	456.413851879914	322.328582851683	973.619661333290	396.426806343023	318.152646240621	849.192398801227	312.906255885007	279.044129154833	875.948060390411	188.885525469077	342.634927604874	1265.928601545124	413.072755132728	548.055937913572	1204.047696273103	301.071866166119	606.016247018133	1266.847899422499	212.808893258246	552.479802504541	1159.123933783376	41.315598848421	514.646271102582	1323.798704845517	99.089945637943	563.650834166763	1236.064462171304	37.016394213980	596.644565592959	1442.581384108350	53.155689198971	603.593770314187	723.043090017150	53.223224938733	398.948879066624	789.029211048783	40.650717633049	313.349257648801	879.103238746037	96.966339275133	330.611704643604	999.142198250747	40.272267863583	292.468064433970	1157.297390423885	1094.156885603051	122.753147136722	1412.044192162990	1104.031767549117	148.447197371078	899.639364167885	1121.770922245838	714.939979125242	824.951779588528	876.067010522232	748.118591977664	
